<?xml version="1.0" standalone="no"?>
<!DOCTYPE svg PUBLIC "-//W3C//DTD SVG 20010904//EN"
 "http://www.w3.org/TR/2001/REC-SVG-20010904/DTD/svg10.dtd">
<svg version="1.0" xmlns="http://www.w3.org/2000/svg"
 width="375.000000pt" height="512.000000pt" viewBox="0 0 375.000000 512.000000"
 preserveAspectRatio="xMidYMid meet">

<g transform="translate(0.000000,512.000000) scale(0.100000,-0.100000)"
fill="#000000" stroke="none">
<path d="M430 5109 c-32 -13 -78 -56 -96 -91 -8 -16 -14 -56 -14 -97 0 -169
106 -305 271 -348 l69 -17 0 -401 c0 -445 8 -530 60 -687 108 -322 352 -581
668 -710 136 -56 182 -106 182 -198 0 -92 -46 -142 -182 -198 -316 -129 -560
-388 -668 -710 -52 -157 -60 -242 -60 -689 l0 -401 -42 -7 c-162 -27 -287
-167 -296 -332 -5 -92 0 -114 40 -159 58 -66 37 -64 678 -64 353 0 588 4 599
10 10 5 24 22 30 39 10 24 10 34 -3 60 -9 17 -18 32 -19 33 -1 2 -265 5 -587
8 l-585 5 -3 34 c-6 58 7 96 45 141 74 86 -35 80 1303 80 1338 0 1229 6 1303
-80 38 -45 51 -83 45 -141 l-3 -34 -646 -5 c-618 -5 -648 -6 -668 -24 -31 -28
-28 -79 5 -105 26 -21 34 -21 675 -21 433 0 657 4 676 11 34 13 80 55 99 91 8
16 14 56 14 100 -1 83 -27 159 -76 222 -45 57 -136 113 -205 127 l-59 12 0
401 c0 446 -8 531 -60 688 -108 322 -352 581 -668 710 -136 56 -182 106 -182
198 0 92 46 142 182 198 354 144 608 443 700 822 19 78 21 123 25 532 l4 446
42 7 c108 18 219 104 266 205 26 56 40 173 27 225 -9 35 -65 95 -103 111 -27
12 -240 14 -1186 14 l-1154 0 -21 -23 c-29 -31 -29 -77 1 -105 l23 -22 1145
-2 1144 -3 3 -34 c6 -58 -7 -96 -45 -141 -74 -86 35 -80 -1303 -80 -1338 0
-1229 -6 -1303 80 -38 45 -51 83 -45 141 l3 34 65 3 c93 3 108 8 126 43 13 26
13 36 3 60 -6 17 -20 34 -30 39 -23 13 -177 12 -209 -1z m2400 -943 c0 -229
-5 -427 -11 -472 -30 -214 -132 -419 -288 -575 -113 -112 -181 -155 -418 -259
-67 -30 -129 -91 -162 -160 -22 -46 -26 -69 -26 -140 0 -71 4 -94 26 -140 33
-69 95 -130 162 -160 237 -104 305 -147 418 -259 90 -91 147 -172 204 -295 86
-182 88 -201 93 -704 l3 -442 -84 0 -84 0 -21 88 c-12 48 -44 133 -72 189
-113 228 -351 407 -595 446 l-73 11 -4 129 c-3 127 -3 129 -31 153 -35 30 -59
30 -94 0 -28 -24 -28 -26 -31 -154 l-4 -129 -53 -7 c-78 -9 -217 -59 -299
-107 -88 -52 -240 -202 -288 -284 -46 -80 -85 -178 -104 -265 l-16 -70 -85 0
-84 0 3 442 c4 424 5 447 27 527 74 271 241 495 467 627 24 14 94 48 156 75
92 40 122 59 164 101 68 71 97 147 92 243 -7 131 -76 232 -198 287 -36 17 -97
45 -137 63 -266 123 -461 363 -545 670 -20 75 -22 106 -26 523 l-3 442 1010 0
1011 0 0 -394z m-815 -3047 c252 -78 429 -270 489 -531 l6 -28 -690 0 -690 0
6 28 c33 144 92 250 199 357 105 105 225 168 373 195 75 14 228 4 307 -21z"/>
<path d="M2225 4076 c-50 -13 -172 -60 -270 -103 -209 -93 -284 -119 -377
-132 -106 -15 -259 10 -406 65 -75 28 -123 30 -157 8 -39 -26 -48 -70 -35
-176 40 -333 257 -598 580 -710 92 -32 100 -33 260 -33 164 0 166 0 267 36
167 59 295 149 397 280 110 140 170 302 182 493 8 130 0 187 -33 226 -44 53
-76 63 -203 67 -97 3 -130 -1 -205 -21z m284 -135 c18 -12 9 -186 -14 -276
-81 -313 -354 -525 -675 -525 -274 0 -509 148 -626 395 -52 109 -80 233 -50
222 133 -51 322 -80 441 -66 107 12 197 41 395 129 155 68 263 109 325 123 37
9 190 7 204 -2z"/>
<path d="M1778 2139 c-24 -14 -38 -71 -38 -159 0 -122 23 -169 80 -169 57 0
80 47 80 169 0 126 -22 170 -82 170 -13 0 -31 -5 -40 -11z"/>
</g>
</svg>
